<svg width="31" height="32" viewBox="0 0 31 32" fill="none" xmlns="http://www.w3.org/2000/svg">
<path d="M30.1176 2.66667V29.3333C30.1176 30.0406 29.8292 30.7189 29.3157 31.219C28.8022 31.719 28.1058 32 27.3797 32H20.5348C19.8086 32 19.1122 31.719 18.5987 31.219C18.0853 30.7189 17.7968 30.0406 17.7968 29.3333V2.66667C17.7968 1.95942 18.0853 1.28115 18.5987 0.781048C19.1122 0.280951 19.8086 0 20.5348 0H27.3797C28.1058 0 28.8022 0.280951 29.3157 0.781048C29.8292 1.28115 30.1176 1.95942 30.1176 2.66667ZM9.58289 0H2.73797C2.01181 0 1.3154 0.280951 0.801932 0.781048C0.288464 1.28115 0 1.95942 0 2.66667V29.3333C0 30.0406 0.288464 30.7189 0.801932 31.219C1.3154 31.719 2.01181 32 2.73797 32H9.58289C10.309 32 11.0055 31.719 11.5189 31.219C12.0324 30.7189 12.3209 30.0406 12.3209 29.3333V2.66667C12.3209 1.95942 12.0324 1.28115 11.5189 0.781048C11.0055 0.280951 10.309 0 9.58289 0Z" fill="#F8F8F8"/>
</svg>
